name Run_300 02_newCOP3_v24.mot
datacolumns 19
datarows 107
range 4.21 4.263
DataType=double
version=3
OpenSimVersion=4.3-2021-08-27-4bc7ad9
endheader
time	R_ground_force_vx	R_ground_force_vy	R_ground_force_vz	R_ground_force_px	R_ground_force_py	R_ground_force_pz	L_ground_force_vx	L_ground_force_vy	L_ground_force_vz	L_ground_force_px	L_ground_force_py	L_ground_force_pz	R_ground_torque_x	R_ground_torque_y	R_ground_torque_z	L_ground_torque_x	L_ground_torque_y	L_ground_torque_z
4.21	171.521713	899.904907	45.380199	0.6996869999999999	0	-0.350749	0	0	0	0	0	0	0	-1.20149	0	0	0	0
4.2105	171.954727	891.237	45.564102	0.6984669999999999	0	-0.350763	0	0	0	0	0	0	0	-1.238433	0	0	0	0
4.211	172.342331	882.5517579999999	45.735031	0.697249	0	-0.350777	0	0	0	0	0	0	0	-1.273274	0	0	0	0
4.2115	172.684433	873.849792	45.892723	0.696034	0	-0.350791	0	0	0	0	0	0	0	-1.305997	0	0	0	0
4.212	172.981003	865.131897	46.036945	0.694821	0	-0.350805	0	0	0	0	0	0	0	-1.336588	0	0	0	0
4.2125	173.23201	856.398804	46.167484	0.6936099999999999	0	-0.350819	0	0	0	0	0	0	0	-1.365035	0	0	0	0
4.213	173.4375	847.651306	46.284153	0.692401	0	-0.350832	0	0	0	0	0	0	0	-1.391326	0	0	0	0
4.2135	173.597565	838.8901980000001	46.386787	0.691194	0	-0.350846	0	0	0	0	0	0	0	-1.415455	0	0	0	0
4.214	173.712326	830.116394	46.475258	0.689989	0	-0.35086	0	0	0	0	0	0	0	-1.437414	0	0	0	0
4.2145	173.781937	821.330688	46.549461	0.688786	0	-0.350874	0	0	0	0	0	0	0	-1.457199	0	0	0	0
4.215	173.806595	812.534058	46.609318	0.687585	0	-0.350888	0	0	0	0	0	0	0	-1.474808	0	0	0	0
4.2155	173.78656	803.7274169999999	46.654778	0.686385	0	-0.350902	0	0	0	0	0	0	0	-1.49024	0	0	0	0
4.216	173.722107	794.911682	46.685829	0.685187	0	-0.350917	0	0	0	0	0	0	0	-1.503497	0	0	0	0
4.2165	173.613541	786.088013	46.702484	0.683991	0	-0.350932	0	0	0	0	0	0	0	-1.514581	0	0	0	0
4.217	173.461212	777.257324	46.704777	0.682796	0	-0.350947	0	0	0	0	0	0	0	-1.523499	0	0	0	0
4.2175	173.265488	768.420776	46.69278	0.681602	0	-0.350963	0	0	0	0	0	0	0	-1.530256	0	0	0	0
4.218	173.026764	759.579468	46.666592	0.68041	0	-0.350979	0	0	0	0	0	0	0	-1.534863	0	0	0	0
4.2185	172.745468	750.734619	46.626335	0.679219	0	-0.350995	0	0	0	0	0	0	0	-1.537328	0	0	0	0
4.219	172.422028	741.8874510000001	46.572166	0.678028	0	-0.351012	0	0	0	0	0	0	0	-1.537666	0	0	0	0
4.2195	172.0569	733.039185	46.504261	0.67684	0	-0.351029	0	0	0	0	0	0	0	-1.535889	0	0	0	0
4.22	171.650543	724.191162	46.422825	0.675652	0	-0.351046	0	0	0	0	0	0	0	-1.532015	0	0	0	0
4.2205	171.20343	715.344727	46.328083	0.674465	0	-0.351064	0	0	0	0	0	0	0	-1.526059	0	0	0	0
4.221	170.716019	706.501221	46.220295	0.673279	0	-0.351082	0	0	0	0	0	0	0	-1.518043	0	0	0	0
4.2215	170.188797	697.662109	46.09972	0.672095	0	-0.351099	0	0	0	0	0	0	0	-1.507985	0	0	0	0
4.222	169.622223	688.828918	45.96666	0.670911	0	-0.351117	0	0	0	0	0	0	0	-1.49591	0	0	0	0
4.2225	169.016754	680.003052	45.821423	0.669729	0	-0.351135	0	0	0	0	0	0	0	-1.481841	0	0	0	0
4.223	168.372833	671.186157	45.66433	0.668548	0	-0.351152	0	0	0	0	0	0	0	-1.465803	0	0	0	0
4.2235	167.690903	662.379761	45.495724	0.667369	0	-0.351169	0	0	0	0	0	0	0	-1.447824	0	0	0	0
4.224	166.971375	653.585449	45.31596	0.666191	0	-0.351186	0	0	0	0	0	0	0	-1.427931	0	0	0	0
4.2245	166.214661	644.804871	45.125401	0.665014	0	-0.351202	0	0	0	0	0	0	0	-1.406155	0	0	0	0
4.225	165.421143	636.039734	44.924419	0.663839	0	-0.351217	0	0	0	0	0	0	0	-1.382527	0	0	0	0
4.2255	164.591202	627.291687	44.713394	0.662666	0	-0.351232	0	0	0	0	0	0	0	-1.35708	0	0	0	0
4.226	163.725204	618.5625	44.492706	0.6614950000000001	0	-0.351245	0	0	0	0	0	0	0	-1.329847	0	0	0	0
4.2265	162.823471	609.853821	44.262749	0.660326	0	-0.351257	0	0	0	0	0	0	0	-1.300863	0	0	0	0
4.227	161.886368	601.167419	44.023903	0.6591590000000001	0	-0.351267	0	0	0	0	0	0	0	-1.270165	0	0	0	0
4.2275	160.9142	592.5050660000001	43.776554	0.657995	0	-0.351276	0	0	0	0	0	0	0	-1.237789	0	0	0	0
4.228	159.907303	583.86853	43.521084	0.656834	0	-0.351283	0	0	0	0	0	0	0	-1.203775	0	0	0	0
4.2285	158.865997	575.25946	43.257874	0.655675	0	-0.351288	0	0	0	0	0	0	0	-1.168162	0	0	0	0
4.229	157.790604	566.679749	42.987289	0.654519	0	-0.35129	0	0	0	0	0	0	0	-1.130989	0	0	0	0
4.2295	156.681473	558.131042	42.709694	0.653367	0	-0.35129	0	0	0	0	0	0	0	-1.0923	0	0	0	0
4.23	155.538925	549.615112	42.425438	0.652218	0	-0.351288	0	0	0	0	0	0	0	-1.052136	0	0	0	0
4.2305	154.363342	541.1336669999999	42.134853	0.651072	0	-0.351282	0	0	0	0	0	0	0	-1.01054	0	0	0	0
4.231	153.155121	532.688477	41.838276	0.64993	0	-0.351273	0	0	0	0	0	0	0	-0.967557	0	0	0	0
4.2315	151.914642	524.281189	41.536007	0.648793	0	-0.351261	0	0	0	0	0	0	0	-0.923231	0	0	0	0
4.232	150.64238	515.913452	41.228344	0.647659	0	-0.351246	0	0	0	0	0	0	0	-0.8776080000000001	0	0	0	0
4.2325	149.338821	507.587036	40.915565	0.64653	0	-0.351227	0	0	0	0	0	0	0	-0.830734	0	0	0	0
4.233	148.004456	499.303467	40.597931	0.645405	0	-0.351203	0	0	0	0	0	0	0	-0.782656	0	0	0	0
4.2335	146.639862	491.064362	40.275684	0.644284	0	-0.351176	0	0	0	0	0	0	0	-0.733421	0	0	0	0
4.234	145.245667	482.871277	39.949039	0.643169	0	-0.351145	0	0	0	0	0	0	0	-0.683079	0	0	0	0
4.2345	143.82251	474.7258	39.61821	0.642058	0	-0.351109	0	0	0	0	0	0	0	-0.631676	0	0	0	0
4.235	142.371094	466.629425	39.283375	0.640952	0	-0.351069	0	0	0	0	0	0	0	-0.5792620000000001	0	0	0	0
4.2355	140.892181	458.583588	38.944695	0.6398509999999999	0	-0.351025	0	0	0	0	0	0	0	-0.525887	0	0	0	0
4.236	139.386566	450.589752	38.602322	0.638755	0	-0.350975	0	0	0	0	0	0	0	-0.471601	0	0	0	0
4.2365	137.855118	442.649292	38.256378	0.637664	0	-0.350921	0	0	0	0	0	0	0	-0.416453	0	0	0	0
4.237	136.298721	434.76358	37.906967	0.636578	0	-0.350862	0	0	0	0	0	0	0	-0.360493	0	0	0	0
4.2375	134.718323	426.93396	37.55418	0.635498	0	-0.350799	0	0	0	0	0	0	0	-0.303773	0	0	0	0
4.238	133.114899	419.161713	37.19809	0.634422	0	-0.35073	0	0	0	0	0	0	0	-0.246344	0	0	0	0
4.2385	131.489517	411.448029	36.838753	0.633352	0	-0.350657	0	0	0	0	0	0	0	-0.188256	0	0	0	0
4.239	129.843201	403.794159	36.476204	0.632287	0	-0.350579	0	0	0	0	0	0	0	-0.129561	0	0	0	0
4.2395	128.177063	396.201263	36.11047	0.631227	0	-0.350496	0	0	0	0	0	0	0	-0.070309	0	0	0	0
4.24	126.492233	388.670441	35.741566	0.630171	0	-0.350408	0	0	0	0	0	0	0	-0.010552	0	0	0	0
4.2405	124.789856	381.202789	35.369488	0.629121	0	-0.350316	0	0	0	0	0	0	-0	0.049658	-0	0	0	0
4.241	123.071114	373.799377	34.994232	0.628074	0	-0.350219	0	0	0	0	0	0	-0	0.11027	-0	0	0	0
4.2415	121.337196	366.461151	34.61578	0.627033	0	-0.350118	0	0	0	0	0	0	-0	0.171234	-0	0	0	0
4.242	119.58931	359.189148	34.234104	0.625995	0	-0.350013	0	0	0	0	0	0	-0	0.232498	-0	0	0	0
4.2425	117.828674	351.984253	33.849178	0.624962	0	-0.349904	0	0	0	0	0	0	-0	0.294011	-0	0	0	0
4.243	116.056511	344.847382	33.460964	0.623932	0	-0.349791	0	0	0	0	0	0	-0	0.355722	-0	0	0	0
4.2435	114.274055	337.779388	33.069431	0.622907	0	-0.349675	0	0	0	0	0	0	-0	0.417581	-0	0	0	0
4.244	112.482529	330.781128	32.674545	0.621884	0	-0.349555	0	0	0	0	0	0	-0	0.479537	-0	0	0	0
4.2445	110.683174	323.853363	32.276268	0.620865	0	-0.349432	0	0	0	0	0	0	-0	0.5415410000000001	-0	0	0	0
4.245	108.877213	316.996887	31.874577	0.619848	0	-0.349307	0	0	0	0	0	0	-0	0.603542	-0	0	0	0
4.2455	107.065872	310.212433	31.469442	0.618834	0	-0.349179	0	0	0	0	0	0	-0	0.6654910000000001	-0	0	0	0
4.246	105.250374	303.500702	31.06085	0.617823	0	-0.349048	0	0	0	0	0	0	-0	0.727339	-0	0	0	0
4.2465	103.431915	296.862427	30.648788	0.6168129999999999	0	-0.348916	0	0	0	0	0	0	-0	0.789037	-0	0	0	0
4.247	101.611717	290.298187	30.233261	0.615806	0	-0.348782	0	0	0	0	0	0	-0	0.850538	-0	0	0	0
4.2475	99.79096199999999	283.808685	29.81428	0.6148	0	-0.348647	0	0	0	0	0	0	-0	0.911793	-0	0	0	0
4.248	97.970825	277.394501	29.391869	0.613795	0	-0.348512	0	0	0	0	0	0	-0	0.972755	-0	0	0	0
4.2485	96.152489	271.056213	28.96607	0.612792	0	-0.348375	0	0	0	0	0	0	-0	1.033378	-0	0	0	0
4.249	94.337097	264.794373	28.536934	0.6117899999999999	0	-0.348238	0	0	0	0	0	0	-0	1.093614	-0	0	0	0
4.2495	92.52578699999999	258.609558	28.104534	0.610788	0	-0.348101	0	0	0	0	0	0	-0	1.153419	-0	0	0	0
4.25	90.719696	252.502243	27.668957	0.609788	0	-0.347964	0	0	0	0	0	0	-0	1.212748	-0	0	0	0
4.2505	88.91990699999999	246.472946	27.230309	0.608788	0	-0.347827	0	0	0	0	0	0	-0	1.271555	-0	0	0	0
4.251	87.12751799999999	240.522095	26.78871	0.6077900000000001	0	-0.347692	0	0	0	0	0	0	-0	1.329798	-0	0	0	0
4.2515	85.343575	234.650162	26.344305	0.606792	0	-0.347557	0	0	0	0	0	0	-0	1.387433	-0	0	0	0
4.252	83.56912199999999	228.857544	25.897253	0.605795	0	-0.347423	0	0	0	0	0	0	-0	1.444418	-0	0	0	0
4.2525	81.805161	223.144653	25.447733	0.6047979999999999	0	-0.34729	0	0	0	0	0	0	-0	1.500712	-0	0	0	0
4.253	80.05265	217.511841	24.995945	0.603804	0	-0.347159	0	0	0	0	0	0	-0	1.556273	-0	0	0	0
4.2535	78.312546	211.959442	24.542107	0.60281	0	-0.347029	0	0	0	0	0	0	-0	1.611061	-0	0	0	0
4.254	76.585739	206.487793	24.086451	0.601818	0	-0.346901	0	0	0	0	0	0	-0	1.665038	-0	0	0	0
4.2545	74.873093	201.097183	23.62923	0.600828	0	-0.346774	0	0	0	0	0	0	-0	1.718165	-0	0	0	0
4.255	73.175415	195.787857	23.170715	0.599841	0	-0.346648	0	0	0	0	0	0	-0	1.770404	-0	0	0	0
4.2555	71.493477	190.560059	22.711195	0.598857	0	-0.346524	0	0	0	0	0	0	-0	1.821719	-0	0	0	0
4.256	69.828011	185.414017	22.250965	0.597876	0	-0.3464	0	0	0	0	0	0	-0	1.872074	-0	0	0	0
4.2565	68.179672	180.349884	21.790346	0.596899	0	-0.346278	0	0	0	0	0	0	-0	1.921435	-0	0	0	0
4.257	66.54908	175.367859	21.329664	0.595927	0	-0.346156	0	0	0	0	0	0	-0	1.969767	-0	0	0	0
4.2575	64.936813	170.468048	20.869261	0.594961	0	-0.346035	0	0	0	0	0	0	-0	2.017038	-0	0	0	0
4.258	63.343365	165.650574	20.409483	0.594001	0	-0.345913	0	0	0	0	0	0	-0	2.063215	-0	0	0	0
4.2585	61.769196	160.915497	19.950695	0.593049	0	-0.345791	0	0	0	0	0	0	-0	2.108269	-0	0	0	0
4.259	60.21471	156.262894	19.493259	0.592106	0	-0.345668	0	0	0	0	0	0	-0	2.152169	-0	0	0	0
4.2595	58.680256	151.692795	19.03755	0.591174	0	-0.345542	0	0	0	0	0	0	-0	2.194886	-0	0	0	0
4.26	57.16613	147.2052	18.583941	0.590252	0	-0.345415	0	0	0	0	0	0	-0	2.236393	-0	0	0	0
4.2605	55.672585	142.800079	18.132814	0.589344	0	-0.345284	0	0	0	0	0	0	-0	2.276664	-0	0	0	0
4.261	54.199825	138.477417	17.684546	0.58845	0	-0.345149	0	0	0	0	0	0	-0	2.315673	-0	0	0	0
4.2615	52.748016	134.237106	17.239513	0.587573	0	-0.345009	0	0	0	0	0	0	-0	2.353395	-0	0	0	0
4.262	51.31728	130.079086	16.798092	0.586714	0	-0.344863	0	0	0	0	0	0	-0	2.389808	-0	0	0	0
4.2625	49.907711	126.00322	16.360651	0.585876	0	-0.34471	0	0	0	0	0	0	-0	2.424889	-0	0	0	0
4.263	48.519371	122.009354	15.927556	0.5850610000000001	0	-0.344549	0	0	0	0	0	0	-0	2.458618	-0	0	0	0
